<svg xmlns="http://www.w3.org/2000/svg" width="15" height="16.141" viewBox="0 0 15 16.141"><defs><style>.a{fill:#fff;}</style></defs><path class="a" d="M21.475,10.628h8.894A1.835,1.835,0,0,0,32.2,8.8V5.015a.042.042,0,0,0,0-.02c0-.007,0-.017,0-.023s0-.013,0-.02a.212.212,0,0,1-.007-.023c0-.007,0-.013-.007-.02s0-.013-.007-.02a.162.162,0,0,1-.01-.023.073.073,0,0,0-.01-.017l-.01-.02c0-.007-.007-.01-.01-.017s-.01-.013-.013-.02a.058.058,0,0,0-.013-.017c0-.007-.01-.01-.013-.017s-.01-.01-.013-.017-.01-.01-.013-.013l-.017-.017c-.007,0-.01-.01-.017-.013s-.013-.01-.02-.013l-.017-.01a.069.069,0,0,1-.02-.013l-.02-.01-.02-.01-.02-.01c-.007,0-.013,0-.02-.007a.061.061,0,0,0-.023-.007.144.144,0,0,1-.017,0,.073.073,0,0,0-.027,0s-.007,0-.013,0L20.543,3.054V1.482a.2.2,0,0,0,0-.046.025.025,0,0,0,0-.013c0-.01,0-.02,0-.03s0-.017-.007-.027,0-.01,0-.017l-.01-.03s0-.01,0-.013A.1.1,0,0,0,20.5,1.28s0-.01-.007-.013a.069.069,0,0,0-.013-.02c0-.007-.007-.01-.01-.017s-.007-.01-.01-.017-.01-.013-.013-.02l-.01-.01-.02-.02-.01-.01a.144.144,0,0,0-.023-.02l-.013-.01c-.007-.007-.013-.01-.02-.017l-.027-.017s-.007,0-.01-.007l-.043-.02L17.823.036a.448.448,0,0,0-.348.826l2.17.916V11.59a1.833,1.833,0,0,0,1.6,1.815,1.807,1.807,0,1,0,3.357.929,1.774,1.774,0,0,0-.249-.912h4.027a1.783,1.783,0,0,0-.249.912,1.808,1.808,0,1,0,1.808-1.808H21.475a.937.937,0,0,1-.935-.935V10.376A1.852,1.852,0,0,0,21.475,10.628Zm2.229,3.7a.912.912,0,1,1-.912-.912A.914.914,0,0,1,23.7,14.33Zm7.146,0a.912.912,0,1,1-.912-.912A.914.914,0,0,1,30.85,14.33Zm-.481-4.6H21.475A.937.937,0,0,1,20.54,8.8V3.957L31.3,5.44V8.793A.937.937,0,0,1,30.369,9.732Z" transform="translate(-17.2 0)"/></svg>